# MagicaVoxel @ ephtracy

# material
mtllib moeda.mtl
usemtl palette

# normals
vn -1 0 0
vn 1 0 0
vn 0 0 1
vn 0 0 -1
vn 0 -1 0
vn 0 1 0

# texcoords
vt 0.00976563 0.5
vt 0.0136719 0.5
vt 0.0175781 0.5
vt 0.0214844 0.5
vt 0.185547 0.5
vt 0.306641 0.5

# verts
v -24 15 5
v -24 15 -8
v -24 33 5
v -24 33 -8
v -21 9 5
v -21 9 -8
v -21 15 6
v -21 15 5
v -21 15 -8
v -21 15 -9
v -21 33 6
v -21 33 5
v -21 33 -8
v -21 33 -9
v -21 39 5
v -21 39 -8
v -20 10 -8
v -20 10 -9
v -20 15 -8
v -20 15 -9
v -18 6 5
v -18 6 -8
v -18 9 5
v -18 9 -8
v -18 9 -9
v -18 10 -8
v -18 10 -9
v -18 13 6
v -18 13 5
v -18 15 6
v -18 15 5
v -18 33 6
v -18 33 5
v -18 33 -8
v -18 33 -9
v -18 39 6
v -18 39 5
v -18 39 -8
v -18 39 -9
v -18 42 5
v -18 42 -8
v -15 3 5
v -15 3 -8
v -15 6 6
v -15 6 5
v -15 6 -8
v -15 6 -9
v -15 9 -8
v -15 9 -9
v -15 13 6
v -15 13 5
v -15 39 6
v -15 39 5
v -15 39 -8
v -15 39 -9
v -15 42 6
v -15 42 5
v -15 42 -8
v -15 42 -9
v -15 45 5
v -15 45 -8
v -9 0 5
v -9 0 -8
v -9 3 6
v -9 3 5
v -9 3 -8
v -9 3 -9
v -9 6 6
v -9 6 5
v -9 6 -8
v -9 6 -9
v -9 42 6
v -9 42 5
v -9 42 -8
v -9 42 -9
v -9 45 6
v -9 45 5
v -9 45 -8
v -9 45 -9
v -9 48 5
v -9 48 -8
v 9 0 5
v 9 0 -8
v 9 3 6
v 9 3 5
v 9 3 -8
v 9 3 -9
v 9 6 6
v 9 6 5
v 9 6 -8
v 9 6 -9
v 9 42 6
v 9 42 5
v 9 42 -8
v 9 42 -9
v 9 45 6
v 9 45 5
v 9 45 -8
v 9 45 -9
v 9 48 5
v 9 48 -8
v 15 3 5
v 15 3 -8
v 15 6 6
v 15 6 5
v 15 6 -8
v 15 6 -9
v 15 9 6
v 15 9 5
v 15 9 -8
v 15 9 -9
v 15 39 6
v 15 39 5
v 15 39 -8
v 15 39 -9
v 15 42 6
v 15 42 5
v 15 42 -8
v 15 42 -9
v 15 45 5
v 15 45 -8
v 18 6 5
v 18 6 -8
v 18 9 6
v 18 9 5
v 18 9 -8
v 18 9 -9
v 18 15 6
v 18 15 5
v 18 15 -8
v 18 15 -9
v 18 33 6
v 18 33 5
v 18 33 -8
v 18 33 -9
v 18 39 6
v 18 39 5
v 18 39 -8
v 18 39 -9
v 18 42 5
v 18 42 -8
v 21 9 5
v 21 9 -8
v 21 15 6
v 21 15 5
v 21 15 -8
v 21 15 -9
v 21 33 6
v 21 33 5
v 21 33 -8
v 21 33 -9
v 21 39 5
v 21 39 -8
v 24 15 5
v 24 15 -8
v 24 33 5
v 24 33 -8
v -21 15 6
v -21 33 6
v -18 13 6
v -18 15 6
v -18 33 6
v -18 39 6
v -15 6 6
v -15 13 6
v -15 15 6
v -15 33 6
v -15 36 6
v -15 39 6
v -15 42 6
v -12 12 6
v -12 15 6
v -12 33 6
v -12 36 6
v -12 39 6
v -9 3 6
v -9 6 6
v -9 9 6
v -9 12 6
v -9 15 6
v -9 33 6
v -9 36 6
v -9 39 6
v -9 42 6
v -9 45 6
v -6 15 6
v -6 33 6
v -3 12 6
v -3 15 6
v -3 33 6
v -3 36 6
v 3 12 6
v 3 15 6
v 3 33 6
v 3 36 6
v 6 15 6
v 6 33 6
v 9 3 6
v 9 6 6
v 9 9 6
v 9 12 6
v 9 15 6
v 9 33 6
v 9 36 6
v 9 39 6
v 9 42 6
v 9 45 6
v 12 9 6
v 12 12 6
v 12 15 6
v 12 33 6
v 12 36 6
v 15 6 6
v 15 9 6
v 15 12 6
v 15 15 6
v 15 33 6
v 15 39 6
v 15 42 6
v 18 9 6
v 18 15 6
v 18 33 6
v 18 39 6
v 21 15 6
v 21 33 6
v -24 15 5
v -24 33 5
v -21 9 5
v -21 15 5
v -21 33 5
v -21 39 5
v -18 6 5
v -18 9 5
v -18 13 5
v -18 15 5
v -18 33 5
v -18 39 5
v -18 42 5
v -15 3 5
v -15 6 5
v -15 13 5
v -15 39 5
v -15 42 5
v -15 45 5
v -9 0 5
v -9 3 5
v -9 6 5
v -9 42 5
v -9 45 5
v -9 48 5
v 9 0 5
v 9 3 5
v 9 6 5
v 9 42 5
v 9 45 5
v 9 48 5
v 15 3 5
v 15 6 5
v 15 9 5
v 15 39 5
v 15 42 5
v 15 45 5
v 18 6 5
v 18 9 5
v 18 15 5
v 18 33 5
v 18 39 5
v 18 42 5
v 21 9 5
v 21 15 5
v 21 33 5
v 21 39 5
v 24 15 5
v 24 33 5
v -24 15 -8
v -24 33 -8
v -21 9 -8
v -21 15 -8
v -21 33 -8
v -21 39 -8
v -20 10 -8
v -20 15 -8
v -18 6 -8
v -18 9 -8
v -18 10 -8
v -18 33 -8
v -18 39 -8
v -18 42 -8
v -15 3 -8
v -15 6 -8
v -15 9 -8
v -15 39 -8
v -15 42 -8
v -15 45 -8
v -9 0 -8
v -9 3 -8
v -9 6 -8
v -9 42 -8
v -9 45 -8
v -9 48 -8
v 9 0 -8
v 9 3 -8
v 9 6 -8
v 9 42 -8
v 9 45 -8
v 9 48 -8
v 15 3 -8
v 15 6 -8
v 15 9 -8
v 15 39 -8
v 15 42 -8
v 15 45 -8
v 18 6 -8
v 18 9 -8
v 18 15 -8
v 18 33 -8
v 18 39 -8
v 18 42 -8
v 21 9 -8
v 21 15 -8
v 21 33 -8
v 21 39 -8
v 24 15 -8
v 24 33 -8
v -21 15 -9
v -21 33 -9
v -20 10 -9
v -20 15 -9
v -18 9 -9
v -18 10 -9
v -18 15 -9
v -18 33 -9
v -18 39 -9
v -15 6 -9
v -15 9 -9
v -15 12 -9
v -15 15 -9
v -15 33 -9
v -15 39 -9
v -15 42 -9
v -12 9 -9
v -12 12 -9
v -12 15 -9
v -12 33 -9
v -12 36 -9
v -9 3 -9
v -9 6 -9
v -9 9 -9
v -9 12 -9
v -9 15 -9
v -9 33 -9
v -9 36 -9
v -9 39 -9
v -9 42 -9
v -9 45 -9
v -6 15 -9
v -6 33 -9
v -3 12 -9
v -3 15 -9
v -3 33 -9
v -3 36 -9
v 3 12 -9
v 3 15 -9
v 3 33 -9
v 3 36 -9
v 6 15 -9
v 6 33 -9
v 9 3 -9
v 9 6 -9
v 9 9 -9
v 9 12 -9
v 9 15 -9
v 9 33 -9
v 9 36 -9
v 9 39 -9
v 9 42 -9
v 9 45 -9
v 12 12 -9
v 12 15 -9
v 12 33 -9
v 12 36 -9
v 12 39 -9
v 15 6 -9
v 15 9 -9
v 15 15 -9
v 15 33 -9
v 15 36 -9
v 15 39 -9
v 15 42 -9
v 18 9 -9
v 18 15 -9
v 18 33 -9
v 18 39 -9
v 21 15 -9
v 21 33 -9
v -9 0 5
v 9 0 5
v -9 0 -8
v 9 0 -8
v -9 3 6
v 9 3 6
v -15 3 5
v -9 3 5
v 9 3 5
v 15 3 5
v -15 3 -8
v -9 3 -8
v 9 3 -8
v 15 3 -8
v -9 3 -9
v 9 3 -9
v -15 6 6
v -9 6 6
v 9 6 6
v 15 6 6
v -18 6 5
v -15 6 5
v -9 6 5
v 9 6 5
v 15 6 5
v 18 6 5
v -18 6 -8
v -15 6 -8
v -9 6 -8
v 9 6 -8
v 15 6 -8
v 18 6 -8
v -15 6 -9
v -9 6 -9
v 9 6 -9
v 15 6 -9
v 15 9 6
v 18 9 6
v -21 9 5
v -18 9 5
v 15 9 5
v 18 9 5
v 21 9 5
v -21 9 -8
v -18 9 -8
v -15 9 -8
v 15 9 -8
v 18 9 -8
v 21 9 -8
v -18 9 -9
v -15 9 -9
v 15 9 -9
v 18 9 -9
v -20 10 -8
v -18 10 -8
v -20 10 -9
v -18 10 -9
v -18 13 6
v -15 13 6
v -18 13 5
v -15 13 5
v -21 15 6
v -18 15 6
v 18 15 6
v 21 15 6
v -24 15 5
v -21 15 5
v -18 15 5
v 18 15 5
v 21 15 5
v 24 15 5
v -24 15 -8
v -21 15 -8
v -20 15 -8
v 18 15 -8
v 21 15 -8
v 24 15 -8
v -21 15 -9
v -20 15 -9
v 18 15 -9
v 21 15 -9
v -21 33 6
v -18 33 6
v 18 33 6
v 21 33 6
v -24 33 5
v -21 33 5
v -18 33 5
v 18 33 5
v 21 33 5
v 24 33 5
v -24 33 -8
v -21 33 -8
v -18 33 -8
v 18 33 -8
v 21 33 -8
v 24 33 -8
v -21 33 -9
v -18 33 -9
v 18 33 -9
v 21 33 -9
v -18 39 6
v -15 39 6
v 15 39 6
v 18 39 6
v -21 39 5
v -18 39 5
v -15 39 5
v 15 39 5
v 18 39 5
v 21 39 5
v -21 39 -8
v -18 39 -8
v -15 39 -8
v 15 39 -8
v 18 39 -8
v 21 39 -8
v -18 39 -9
v -15 39 -9
v 15 39 -9
v 18 39 -9
v -15 42 6
v -9 42 6
v 9 42 6
v 15 42 6
v -18 42 5
v -15 42 5
v -9 42 5
v 9 42 5
v 15 42 5
v 18 42 5
v -18 42 -8
v -15 42 -8
v -9 42 -8
v 9 42 -8
v 15 42 -8
v 18 42 -8
v -15 42 -9
v -9 42 -9
v 9 42 -9
v 15 42 -9
v -9 45 6
v 9 45 6
v -15 45 5
v -9 45 5
v 9 45 5
v 15 45 5
v -15 45 -8
v -9 45 -8
v 9 45 -8
v 15 45 -8
v -9 45 -9
v 9 45 -9
v -9 48 5
v 9 48 5
v -9 48 -8
v 9 48 -8

# faces
f 3/4/1 2/4/1 1/4/1
f 4/4/1 2/4/1 3/4/1
f 8/4/1 6/4/1 5/4/1
f 9/4/1 6/4/1 8/4/1
f 11/2/1 8/2/1 7/2/1
f 12/2/1 8/2/1 11/2/1
f 13/5/1 10/5/1 9/5/1
f 14/5/1 10/5/1 13/5/1
f 15/4/1 13/4/1 12/4/1
f 16/4/1 13/4/1 15/4/1
f 19/5/1 18/5/1 17/5/1
f 20/5/1 18/5/1 19/5/1
f 23/4/1 22/4/1 21/4/1
f 24/4/1 22/4/1 23/4/1
f 26/5/1 25/5/1 24/5/1
f 27/5/1 25/5/1 26/5/1
f 30/4/1 29/4/1 28/4/1
f 31/4/1 29/4/1 30/4/1
f 36/2/1 33/2/1 32/2/1
f 37/2/1 33/2/1 36/2/1
f 38/4/1 35/4/1 34/4/1
f 39/4/1 35/4/1 38/4/1
f 40/4/1 38/4/1 37/4/1
f 41/4/1 38/4/1 40/4/1
f 45/4/1 43/4/1 42/4/1
f 46/4/1 43/4/1 45/4/1
f 48/5/1 47/5/1 46/5/1
f 49/5/1 47/5/1 48/5/1
f 50/4/1 45/4/1 44/4/1
f 51/4/1 45/4/1 50/4/1
f 56/2/1 53/2/1 52/2/1
f 57/2/1 53/2/1 56/2/1
f 58/4/1 55/4/1 54/4/1
f 59/4/1 55/4/1 58/4/1
f 60/4/1 58/4/1 57/4/1
f 61/4/1 58/4/1 60/4/1
f 65/4/1 63/4/1 62/4/1
f 66/4/1 63/4/1 65/4/1
f 68/5/1 65/5/1 64/5/1
f 69/5/1 65/5/1 68/5/1
f 70/5/1 67/5/1 66/5/1
f 71/5/1 67/5/1 70/5/1
f 76/2/1 73/2/1 72/2/1
f 77/2/1 73/2/1 76/2/1
f 78/2/1 75/2/1 74/2/1
f 79/2/1 75/2/1 78/2/1
f 80/4/1 78/4/1 77/4/1
f 81/4/1 78/4/1 80/4/1
f 82/4/2 83/4/2 85/4/2
f 85/4/2 83/4/2 86/4/2
f 84/5/2 85/5/2 88/5/2
f 88/5/2 85/5/2 89/5/2
f 86/5/2 87/5/2 90/5/2
f 90/5/2 87/5/2 91/5/2
f 92/2/2 93/2/2 96/2/2
f 96/2/2 93/2/2 97/2/2
f 94/2/2 95/2/2 98/2/2
f 98/2/2 95/2/2 99/2/2
f 97/4/2 98/4/2 100/4/2
f 100/4/2 98/4/2 101/4/2
f 102/4/2 103/4/2 105/4/2
f 105/4/2 103/4/2 106/4/2
f 104/5/2 105/5/2 108/5/2
f 108/5/2 105/5/2 109/5/2
f 106/4/2 107/4/2 110/4/2
f 110/4/2 107/4/2 111/4/2
f 112/4/2 113/4/2 116/4/2
f 116/4/2 113/4/2 117/4/2
f 114/2/2 115/2/2 118/2/2
f 118/2/2 115/2/2 119/2/2
f 117/4/2 118/4/2 120/4/2
f 120/4/2 118/4/2 121/4/2
f 122/4/2 123/4/2 125/4/2
f 125/4/2 123/4/2 126/4/2
f 124/5/2 125/5/2 128/5/2
f 128/5/2 125/5/2 129/5/2
f 126/4/2 127/4/2 130/4/2
f 130/4/2 127/4/2 131/4/2
f 132/4/2 133/4/2 136/4/2
f 136/4/2 133/4/2 137/4/2
f 134/2/2 135/2/2 138/2/2
f 138/2/2 135/2/2 139/2/2
f 137/4/2 138/4/2 140/4/2
f 140/4/2 138/4/2 141/4/2
f 142/4/2 143/4/2 145/4/2
f 145/4/2 143/4/2 146/4/2
f 144/5/2 145/5/2 148/5/2
f 148/5/2 145/5/2 149/5/2
f 146/2/2 147/2/2 150/2/2
f 150/2/2 147/2/2 151/2/2
f 149/4/2 150/4/2 152/4/2
f 152/4/2 150/4/2 153/4/2
f 154/4/2 155/4/2 156/4/2
f 156/4/2 155/4/2 157/4/2
f 161/2/3 159/2/3 158/2/3
f 162/2/3 159/2/3 161/2/3
f 165/4/3 161/4/3 160/4/3
f 165/4/3 162/4/3 161/4/3
f 166/4/3 162/4/3 165/4/3
f 167/2/3 163/2/3 162/2/3
f 167/4/3 162/4/3 166/4/3
f 168/2/3 163/2/3 167/2/3
f 169/2/3 163/2/3 168/2/3
f 171/4/3 166/4/3 165/4/3
f 171/4/3 165/4/3 164/4/3
f 172/5/3 167/5/3 166/5/3
f 172/4/3 166/4/3 171/4/3
f 173/4/3 168/4/3 167/4/3
f 173/5/3 167/5/3 172/5/3
f 174/2/3 170/2/3 169/2/3
f 174/4/3 168/4/3 173/4/3
f 174/2/3 169/2/3 168/2/3
f 175/2/3 170/2/3 174/2/3
f 177/4/3 171/4/3 164/4/3
f 178/4/3 171/4/3 177/4/3
f 179/5/3 172/5/3 171/5/3
f 179/4/3 171/4/3 178/4/3
f 180/4/3 173/4/3 172/4/3
f 180/5/3 172/5/3 179/5/3
f 181/5/3 174/5/3 173/5/3
f 181/4/3 173/4/3 180/4/3
f 182/4/3 175/4/3 174/4/3
f 182/5/3 174/5/3 181/5/3
f 183/2/3 170/2/3 175/2/3
f 183/4/3 175/4/3 182/4/3
f 184/2/3 170/2/3 183/2/3
f 186/4/3 182/4/3 181/4/3
f 186/4/3 180/4/3 179/4/3
f 186/4/3 181/4/3 180/4/3
f 187/4/3 182/4/3 186/4/3
f 188/2/3 179/2/3 178/2/3
f 188/4/3 186/4/3 179/4/3
f 189/2/3 187/2/3 186/2/3
f 189/4/3 186/4/3 188/4/3
f 190/4/3 182/4/3 187/4/3
f 190/2/3 187/2/3 189/2/3
f 191/5/3 183/5/3 182/5/3
f 191/4/3 182/4/3 190/4/3
f 192/5/3 189/5/3 188/5/3
f 192/2/3 188/2/3 178/2/3
f 193/4/3 190/4/3 189/4/3
f 193/5/3 189/5/3 192/5/3
f 194/2/3 191/2/3 190/2/3
f 194/4/3 190/4/3 193/4/3
f 195/5/3 183/5/3 191/5/3
f 195/2/3 191/2/3 194/2/3
f 196/5/3 194/5/3 193/5/3
f 196/4/3 193/4/3 192/4/3
f 197/4/3 195/4/3 194/4/3
f 197/5/3 194/5/3 196/5/3
f 198/5/3 177/5/3 176/5/3
f 199/4/3 178/4/3 177/4/3
f 199/5/3 177/5/3 198/5/3
f 200/2/3 192/2/3 178/2/3
f 200/4/3 178/4/3 199/4/3
f 201/4/3 196/4/3 192/4/3
f 201/2/3 192/2/3 200/2/3
f 201/4/3 197/4/3 196/4/3
f 202/4/3 197/4/3 201/4/3
f 203/4/3 195/4/3 197/4/3
f 203/4/3 197/4/3 202/4/3
f 204/5/3 183/5/3 195/5/3
f 204/4/3 195/4/3 203/4/3
f 205/4/3 184/4/3 183/4/3
f 205/5/3 183/5/3 204/5/3
f 206/2/3 185/2/3 184/2/3
f 206/4/3 184/4/3 205/4/3
f 207/2/3 185/2/3 206/2/3
f 208/5/3 200/5/3 199/5/3
f 208/4/3 201/4/3 200/4/3
f 209/2/3 202/2/3 201/2/3
f 209/4/3 201/4/3 208/4/3
f 210/4/3 203/4/3 202/4/3
f 210/2/3 202/2/3 209/2/3
f 211/5/3 204/5/3 203/5/3
f 211/4/3 203/4/3 210/4/3
f 212/4/3 205/4/3 204/4/3
f 212/5/3 204/5/3 211/5/3
f 212/4/3 206/4/3 205/4/3
f 213/5/3 209/5/3 208/5/3
f 213/5/3 208/5/3 199/5/3
f 214/5/3 209/5/3 213/5/3
f 215/4/3 210/4/3 209/4/3
f 215/5/3 209/5/3 214/5/3
f 216/2/3 211/2/3 210/2/3
f 216/4/3 210/4/3 215/4/3
f 217/4/3 212/4/3 211/4/3
f 217/2/3 211/2/3 216/2/3
f 218/4/3 206/4/3 212/4/3
f 218/4/3 212/4/3 217/4/3
f 219/4/3 206/4/3 218/4/3
f 220/5/3 215/5/3 214/5/3
f 220/5/3 216/5/3 215/5/3
f 221/4/3 217/4/3 216/4/3
f 221/5/3 216/5/3 220/5/3
f 221/4/3 218/4/3 217/4/3
f 222/4/3 218/4/3 221/4/3
f 223/4/3 218/4/3 222/4/3
f 224/5/3 222/5/3 221/5/3
f 225/5/3 222/5/3 224/5/3
f 229/4/3 227/4/3 226/4/3
f 230/4/3 227/4/3 229/4/3
f 233/4/3 229/4/3 228/4/3
f 234/4/3 229/4/3 233/4/3
f 235/4/3 229/4/3 234/4/3
f 236/4/3 231/4/3 230/4/3
f 237/4/3 231/4/3 236/4/3
f 240/4/3 233/4/3 232/4/3
f 240/4/3 234/4/3 233/4/3
f 241/4/3 234/4/3 240/4/3
f 242/4/3 238/4/3 237/4/3
f 243/4/3 238/4/3 242/4/3
f 246/4/3 240/4/3 239/4/3
f 247/4/3 240/4/3 246/4/3
f 248/4/3 244/4/3 243/4/3
f 249/4/3 244/4/3 248/4/3
f 251/4/3 246/4/3 245/4/3
f 252/4/3 246/4/3 251/4/3
f 255/4/3 250/4/3 249/4/3
f 256/4/3 250/4/3 255/4/3
f 257/4/3 253/4/3 252/4/3
f 258/4/3 253/4/3 257/4/3
f 261/4/3 255/4/3 254/4/3
f 262/4/3 255/4/3 261/4/3
f 263/4/3 259/4/3 258/4/3
f 264/4/3 259/4/3 263/4/3
f 267/4/3 261/4/3 260/4/3
f 268/4/3 261/4/3 267/4/3
f 269/4/3 265/4/3 264/4/3
f 270/4/3 265/4/3 269/4/3
f 271/4/3 267/4/3 266/4/3
f 272/4/3 267/4/3 271/4/3
f 273/4/3 271/4/3 270/4/3
f 274/4/3 271/4/3 273/4/3
f 275/4/4 276/4/4 278/4/4
f 278/4/4 276/4/4 279/4/4
f 277/4/4 278/4/4 281/4/4
f 281/4/4 278/4/4 282/4/4
f 277/4/4 281/4/4 284/4/4
f 284/4/4 281/4/4 285/4/4
f 279/4/4 280/4/4 286/4/4
f 286/4/4 280/4/4 287/4/4
f 283/4/4 284/4/4 290/4/4
f 290/4/4 284/4/4 291/4/4
f 287/4/4 288/4/4 292/4/4
f 292/4/4 288/4/4 293/4/4
f 289/4/4 290/4/4 296/4/4
f 296/4/4 290/4/4 297/4/4
f 293/4/4 294/4/4 298/4/4
f 298/4/4 294/4/4 299/4/4
f 295/4/4 296/4/4 301/4/4
f 301/4/4 296/4/4 302/4/4
f 299/4/4 300/4/4 305/4/4
f 305/4/4 300/4/4 306/4/4
f 302/4/4 303/4/4 307/4/4
f 307/4/4 303/4/4 308/4/4
f 304/4/4 305/4/4 311/4/4
f 311/4/4 305/4/4 312/4/4
f 308/4/4 309/4/4 313/4/4
f 313/4/4 309/4/4 314/4/4
f 310/4/4 311/4/4 317/4/4
f 317/4/4 311/4/4 318/4/4
f 314/4/4 315/4/4 319/4/4
f 319/4/4 315/4/4 320/4/4
f 316/4/4 317/4/4 321/4/4
f 321/4/4 317/4/4 322/4/4
f 320/4/4 321/4/4 323/4/4
f 323/4/4 321/4/4 324/4/4
f 325/5/4 326/5/4 328/5/4
f 327/5/4 328/5/4 330/5/4
f 328/5/4 326/5/4 331/5/4
f 330/5/4 328/5/4 331/5/4
f 331/5/4 326/5/4 332/5/4
f 329/5/4 330/5/4 335/5/4
f 330/5/4 331/5/4 335/5/4
f 335/5/4 331/5/4 336/5/4
f 332/4/4 333/4/4 337/4/4
f 336/5/4 331/5/4 337/5/4
f 331/4/4 332/4/4 337/4/4
f 337/4/4 333/4/4 338/4/4
f 338/4/4 333/4/4 339/4/4
f 335/5/4 336/5/4 341/5/4
f 334/5/4 335/5/4 341/5/4
f 336/4/4 337/4/4 342/4/4
f 341/5/4 336/5/4 342/5/4
f 337/2/4 338/2/4 343/2/4
f 342/4/4 337/4/4 343/4/4
f 339/4/4 340/4/4 344/4/4
f 343/2/4 338/2/4 344/2/4
f 338/4/4 339/4/4 344/4/4
f 344/4/4 340/4/4 345/4/4
f 334/5/4 341/5/4 347/5/4
f 341/4/4 342/4/4 348/4/4
f 347/5/4 341/5/4 348/5/4
f 342/2/4 343/2/4 349/2/4
f 348/4/4 342/4/4 349/4/4
f 343/4/4 344/4/4 350/4/4
f 349/2/4 343/2/4 350/2/4
f 344/5/4 345/5/4 351/5/4
f 350/4/4 344/4/4 351/4/4
f 345/4/4 340/4/4 352/4/4
f 351/5/4 345/5/4 352/5/4
f 352/4/4 340/4/4 353/4/4
f 353/4/4 340/4/4 354/4/4
f 350/4/4 351/4/4 356/4/4
f 349/4/4 350/4/4 356/4/4
f 351/4/4 352/4/4 356/4/4
f 356/4/4 352/4/4 357/4/4
f 348/2/4 349/2/4 358/2/4
f 349/4/4 356/4/4 358/4/4
f 356/5/4 357/5/4 359/5/4
f 358/4/4 356/4/4 359/4/4
f 357/4/4 352/4/4 360/4/4
f 359/5/4 357/5/4 360/5/4
f 352/5/4 353/5/4 361/5/4
f 360/4/4 352/4/4 361/4/4
f 358/5/4 359/5/4 362/5/4
f 348/2/4 358/2/4 362/2/4
f 359/4/4 360/4/4 363/4/4
f 362/5/4 359/5/4 363/5/4
f 360/2/4 361/2/4 364/2/4
f 363/4/4 360/4/4 364/4/4
f 361/5/4 353/5/4 365/5/4
f 364/2/4 361/2/4 365/2/4
f 363/2/4 364/2/4 366/2/4
f 362/4/4 363/4/4 366/4/4
f 364/4/4 365/4/4 367/4/4
f 366/2/4 364/2/4 367/2/4
f 346/5/4 347/5/4 368/5/4
f 347/4/4 348/4/4 369/4/4
f 368/5/4 347/5/4 369/5/4
f 348/2/4 362/2/4 370/2/4
f 369/4/4 348/4/4 370/4/4
f 362/4/4 366/4/4 371/4/4
f 370/2/4 362/2/4 371/2/4
f 366/4/4 367/4/4 371/4/4
f 371/4/4 367/4/4 372/4/4
f 367/4/4 365/4/4 373/4/4
f 372/4/4 367/4/4 373/4/4
f 365/5/4 353/5/4 374/5/4
f 373/4/4 365/4/4 374/4/4
f 353/4/4 354/4/4 375/4/4
f 374/5/4 353/5/4 375/5/4
f 354/2/4 355/2/4 376/2/4
f 375/4/4 354/4/4 376/4/4
f 376/2/4 355/2/4 377/2/4
f 371/5/4 372/5/4 378/5/4
f 369/4/4 370/4/4 378/4/4
f 370/4/4 371/4/4 378/4/4
f 372/4/4 373/4/4 379/4/4
f 378/5/4 372/5/4 379/5/4
f 373/5/4 374/5/4 380/5/4
f 379/4/4 373/4/4 380/4/4
f 374/4/4 375/4/4 381/4/4
f 380/5/4 374/5/4 381/5/4
f 375/2/4 376/2/4 382/2/4
f 381/4/4 375/4/4 382/4/4
f 369/4/4 378/4/4 383/4/4
f 378/4/4 379/4/4 383/4/4
f 383/4/4 379/4/4 384/4/4
f 379/5/4 380/5/4 385/5/4
f 384/4/4 379/4/4 385/4/4
f 380/4/4 381/4/4 386/4/4
f 385/5/4 380/5/4 386/5/4
f 381/2/4 382/2/4 387/2/4
f 386/4/4 381/4/4 387/4/4
f 382/2/4 376/2/4 388/2/4
f 387/2/4 382/2/4 388/2/4
f 388/2/4 376/2/4 389/2/4
f 385/4/4 386/4/4 390/4/4
f 384/4/4 385/4/4 390/4/4
f 390/4/4 386/4/4 391/4/4
f 386/2/4 387/2/4 392/2/4
f 391/4/4 386/4/4 392/4/4
f 387/2/4 388/2/4 392/2/4
f 392/2/4 388/2/4 393/2/4
f 391/2/4 392/2/4 394/2/4
f 394/2/4 392/2/4 395/2/4
f 398/4/5 397/4/5 396/4/5
f 399/4/5 397/4/5 398/4/5
f 403/5/5 401/5/5 400/5/5
f 404/5/5 401/5/5 403/5/5
f 406/4/5 403/4/5 402/4/5
f 407/4/5 403/4/5 406/4/5
f 408/4/5 405/4/5 404/4/5
f 409/4/5 405/4/5 408/4/5
f 410/5/5 408/5/5 407/5/5
f 411/5/5 408/5/5 410/5/5
f 417/4/5 413/4/5 412/4/5
f 418/4/5 413/4/5 417/4/5
f 419/5/5 415/5/5 414/5/5
f 420/5/5 415/5/5 419/5/5
f 422/4/5 417/4/5 416/4/5
f 423/4/5 417/4/5 422/4/5
f 426/4/5 421/4/5 420/4/5
f 427/4/5 421/4/5 426/4/5
f 428/5/5 424/5/5 423/5/5
f 429/5/5 424/5/5 428/5/5
f 430/4/5 426/4/5 425/4/5
f 431/4/5 426/4/5 430/4/5
f 436/5/5 433/5/5 432/5/5
f 437/5/5 433/5/5 436/5/5
f 439/4/5 435/4/5 434/4/5
f 440/4/5 435/4/5 439/4/5
f 443/4/5 438/4/5 437/4/5
f 444/4/5 438/4/5 443/4/5
f 445/5/5 441/5/5 440/5/5
f 446/5/5 441/5/5 445/5/5
f 447/4/5 443/4/5 442/4/5
f 448/4/5 443/4/5 447/4/5
f 451/5/5 450/5/5 449/5/5
f 452/5/5 450/5/5 451/5/5
f 455/4/5 454/4/5 453/4/5
f 456/4/5 454/4/5 455/4/5
f 462/2/5 458/2/5 457/2/5
f 463/2/5 458/2/5 462/2/5
f 464/5/5 460/5/5 459/5/5
f 465/5/5 460/5/5 464/5/5
f 467/4/5 462/4/5 461/4/5
f 468/4/5 462/4/5 467/4/5
f 471/4/5 466/4/5 465/4/5
f 472/4/5 466/4/5 471/4/5
f 473/5/5 469/5/5 468/5/5
f 474/5/5 469/5/5 473/5/5
f 475/2/5 471/2/5 470/2/5
f 476/2/5 471/2/5 475/2/5
f 477/2/6 478/2/6 482/2/6
f 482/2/6 478/2/6 483/2/6
f 479/5/6 480/5/6 484/5/6
f 484/5/6 480/5/6 485/5/6
f 481/4/6 482/4/6 487/4/6
f 487/4/6 482/4/6 488/4/6
f 485/4/6 486/4/6 491/4/6
f 491/4/6 486/4/6 492/4/6
f 488/5/6 489/5/6 493/5/6
f 493/5/6 489/5/6 494/5/6
f 490/2/6 491/2/6 495/2/6
f 495/2/6 491/2/6 496/2/6
f 497/2/6 498/2/6 502/2/6
f 502/2/6 498/2/6 503/2/6
f 499/4/6 500/4/6 504/4/6
f 504/4/6 500/4/6 505/4/6
f 501/4/6 502/4/6 507/4/6
f 507/4/6 502/4/6 508/4/6
f 505/4/6 506/4/6 511/4/6
f 511/4/6 506/4/6 512/4/6
f 508/4/6 509/4/6 513/4/6
f 513/4/6 509/4/6 514/4/6
f 510/2/6 511/2/6 515/2/6
f 515/2/6 511/2/6 516/2/6
f 517/2/6 518/2/6 522/2/6
f 522/2/6 518/2/6 523/2/6
f 519/4/6 520/4/6 524/4/6
f 524/4/6 520/4/6 525/4/6
f 521/4/6 522/4/6 527/4/6
f 527/4/6 522/4/6 528/4/6
f 525/4/6 526/4/6 531/4/6
f 531/4/6 526/4/6 532/4/6
f 528/4/6 529/4/6 533/4/6
f 533/4/6 529/4/6 534/4/6
f 530/2/6 531/2/6 535/2/6
f 535/2/6 531/2/6 536/2/6
f 537/2/6 538/2/6 540/2/6
f 540/2/6 538/2/6 541/2/6
f 539/4/6 540/4/6 543/4/6
f 543/4/6 540/4/6 544/4/6
f 541/4/6 542/4/6 545/4/6
f 545/4/6 542/4/6 546/4/6
f 544/2/6 545/2/6 547/2/6
f 547/2/6 545/2/6 548/2/6
f 549/4/6 550/4/6 551/4/6
f 551/4/6 550/4/6 552/4/6
